<svg xmlns="http://www.w3.org/2000/svg" xmlns:xlink="http://www.w3.org/1999/xlink" version="1.1" width="300" height="400" style="enable-background:new 0 0 300 550;" xml:space="preserve"><rect id="backgroundrect" width="100%" height="100%" x="0" y="0" fill="none" stroke="none"/>
<g class="currentLayer"><title>Layer 1</title><rect fill="#ffffff" stroke-dashoffset="" fill-rule="nonzero" id="svg_9" x="-41.2819709777832" y="-9.00001049041748" width="398.9962463378906" height="422" style="color: rgb(0, 0, 0);" class="" fill-opacity="1"/><path style="fill:#5382A1;" d="M99.82387948608397,304.1811434020996 c0,0 -14.178,8.245 10.09,11.035 c29.4,3.354 44.426,2.873 76.825,-3.259 c0,0 8.518,5.341 20.414,9.967 C134.52287948608398,353.0521434020996 42.776879486084,320.1211434020996 99.82387948608397,304.1811434020996 " id="svg_1" class=""/><path style="fill:#5382A1;" d="M90.94887948608397,263.5611434020996 c0,0 -15.902,11.771 8.384,14.283 c31.406,3.24 56.208,3.505 99.125,-4.759 c0,0 5.936,6.018 15.27,9.309 C125.91387948608394,308.0721434020996 28.104879486083973,284.4191434020996 90.94887948608397,263.5611434020996 " id="svg_2" class=""/><path style="fill:#E76F00;" d="M165.76787948608398,194.65614340209962 c17.896,20.604 -4.702,39.145 -4.702,39.145 s45.441,-23.458 24.572,-52.833 c-19.491,-27.394 -34.438,-41.005 46.479,-87.934 C232.11687948608397,93.03414340209962 105.103879486084,124.75614340209961 165.76787948608398,194.65614340209962 " id="svg_3" class=""/><path style="fill:#5382A1;" d="M261.826879486084,334.22614340209964 c0,0 10.492,8.645 -11.555,15.333 c-41.923,12.7 -174.488,16.535 -211.314,0.506 c-13.238,-5.759 11.587,-13.751 19.396,-15.428 c8.144,-1.766 12.798,-1.437 12.798,-1.437 c-14.722,-10.371 -95.157,20.364 -40.857,29.166 C178.37887948608397,386.3811434020996 300.237879486084,351.5521434020996 261.826879486084,334.22614340209964 " id="svg_4" class=""/><path style="fill:#5382A1;" d="M106.64187948608401,221.4741434020996 c0,0 -67.431,16.016 -23.879,21.832 c18.389,2.462 55.047,1.905 89.193,-0.9560000000000004 c27.906,-2.354 55.927,-7.359 55.927,-7.359 s-9.84,4.214 -16.959,9.075 c-68.475,18.009 -200.756,9.631 -162.674,-8.79 C80.45587948608397,219.7081434020996 106.64187948608401,221.4741434020996 106.64187948608401,221.4741434020996 " id="svg_5" class=""/><path style="fill:#5382A1;" d="M227.60487948608397,289.0881434020996 c69.608,-36.171 37.424,-70.931 14.96,-66.248 c-5.506,1.146 -7.961,2.1390000000000002 -7.961,2.1390000000000002 s2.044,-3.202 5.948,-4.588 c44.441,-15.624 78.619,46.081 -14.346,70.52 C226.20587948608397,290.9121434020996 227.28287948608397,289.9491434020996 227.60487948608397,289.0881434020996 " id="svg_6" class=""/><path style="fill:#E76F00;" d="M185.637879486084,17.25614340209961 c0,0 38.55,38.563 -36.563,97.862 c-60.233,47.568 -13.735,74.69 -0.02500000000000002,105.678 c-35.159,-31.722 -60.961,-59.647 -43.651,-85.637 C130.805879486084,97.0081434020996 201.19187948608396,78.5111434020996 185.637879486084,17.25614340209961 " id="svg_7" class=""/><path style="fill:#5382A1;" d="M113.48187948608398,387.1031434020996 c66.815,4.277 169.417,-2.373 171.847,-33.988 c0,0 -4.671,11.985 -55.219,21.503 c-57.028,10.732 -127.364,9.479 -169.081,2.601 C61.029879486083985,377.2181434020996 69.56887948608397,384.2871434020996 113.48187948608398,387.1031434020996 " id="svg_8" class=""/></g></svg>