<svg xmlns:dc="http://purl.org/dc/elements/1.1/" xmlns:cc="http://creativecommons.org/ns#" xmlns:rdf="http://www.w3.org/1999/02/22-rdf-syntax-ns#" xmlns:svg="http://www.w3.org/2000/svg" xmlns="http://www.w3.org/2000/svg" xmlns:sodipodi="http://sodipodi.sourceforge.net/DTD/sodipodi-0.dtd" xmlns:inkscape="http://www.inkscape.org/namespaces/inkscape" width="1052.3621826171875" height="744.094482421875" version="1.1" inkscape:version="0.48.4 r9939" sodipodi:docname="New document 1"><rect id="backgroundrect" width="100%" height="100%" x="0" y="0" fill="none" stroke="none"/>
  <defs id="defs4"/>
  <sodipodi:namedview id="base" pagecolor="#ffffff" bordercolor="#666666" borderopacity="1.0" inkscape:pageopacity="0.0" inkscape:pageshadow="2" inkscape:zoom="0.35" inkscape:cx="375" inkscape:cy="495.71429" inkscape:document-units="px" inkscape:current-layer="layer1" showgrid="false" inkscape:window-width="1366" inkscape:window-height="706" inkscape:window-x="-8" inkscape:window-y="-8" inkscape:window-maximized="1"/>
  <metadata id="metadata7">
    <rdf:RDF>
      <cc:Work rdf:about="">
        <dc:format>image/svg+xml</dc:format>
        <dc:type rdf:resource="http://purl.org/dc/dcmitype/StillImage"/>
        <dc:title/>
      </cc:Work>
    </rdf:RDF>
  </metadata>
  
<g class="currentLayer"><title>Layer 1</title><g inkscape:label="Layer 1" inkscape:groupmode="layer" id="layer1" class="">
    <g id="g3004">
      <path style="fill:#fed142" d="M503.6919046618025,736.7068085484466 C414.54530524764397,733.4672914725464 359.36792835539995,707.0319680512267 345.3294151153593,660.8357221867278 l-1.6317450409146272,-5.3694791367339505 l-0.22892903463913666,-90.56545889363235 c-0.2618589878380917,-103.65308680509997 -0.16991855850660895,-105.75291137276582 5.347666335734962,-122.25790445137078 c10.068135610861345,-30.11668143726202 33.87691327710687,-49.53523774302285 71.11128555049153,-57.99876259440549 l8.233225930690447,-1.8714487562404618 l102.37835514478714,-0.4534849714934516 c73.35031161632,-0.3249264342047306 103.76304650482193,-0.6922666481297153 107.26205161193008,-1.2955697346971324 c20.500318440327778,-3.5347275203384054 33.9483054156422,-8.827308630362156 46.57393925570977,-18.329628613377775 c15.082682540035679,-11.351560778818705 27.532470430020815,-30.78184014791836 33.096051882890684,-51.65276545352846 c4.178600309246938,-15.67536900969175 4.066506748557693,-13.962932411458405 4.518068610784325,-69.02597650619578 l0.41979104338028095,-51.18916440041228 l36.87050946251749,0 l36.87050946251749,0 l7.1593406409286775,1.999296006540086 c38.359312162586086,10.712113775620113 66.20928002936995,47.05577033091688 78.0661970419611,101.87492202028152 c4.560482390504579,21.08494365744075 4.608112274811549,21.865093764667836 4.616410623017685,75.65356426286773 c0.007903188767749264,52.346533707524046 -0.01580637753549853,52.803759521700904 -3.6730860116991355,69.97467528587639 c-3.594633691197946,16.877022517865466 -8.299823468040012,30.609629664669104 -15.331211482818834,44.74577362995401 c-14.180428166346866,28.508698650575763 -35.08989468918102,47.80380714778434 -61.53051324697472,56.77982744679298 c-15.104284589334195,5.127588872515706 -2.4611320141647903,4.6987618499776325 -151.06176085845942,5.123584590206712 l-133.8793591266081,0.3827250880595372 l0,12.170831670446148 l0,12.17085801440871 l88.77562373340015,0.35796176325392237 l88.77562373340015,0.3579881072164814 l0.35796176325392237,43.67186199622967 c0.19678940031695644,24.019529366718842 0.11090808237408123,45.73311900270891 -0.1909937285539401,48.252392142241796 c-0.7303863619528249,6.093516603710017 -3.3154140320333645,13.325145077901043 -7.014132719302567,19.62219513634316 c-3.808941826616745,6.484698103751045 -15.37222903252345,18.083101811749117 -23.221913212315027,23.29243600008591 c-23.842629658134047,15.822868856060513 -60.19432112201136,25.467973116146794 -108.105796044775,28.683596218006045 c-16.120344881278594,1.0818938543797532 -38.949232516173446,1.3931214280537196 -56.20070811785487,0.7662404949958497 zm123.14037450917765,-56.59022994825468 c17.11158916049226,-2.774124633330219 29.36039896011354,-19.520691848602702 26.539118633802417,-36.28425091972585 c-2.3271202766263217,-13.827366380128948 -13.002536912401519,-24.522567331786075 -26.751213876366247,-26.80079321390259 c-20.988682818249565,-3.477929937060849 -40.0760955146417,15.795392103111304 -36.341127534891086,36.695032327910894 c2.7168265147640374,15.202468537792196 14.906757558065578,25.905704398029872 30.82578187746704,27.06618229272361 c0.5906316405764603,0.042940658971437666 3.167993217552282,-0.26133210858690886 5.727440899987872,-0.6761704870060663 zM245.3680395034877,550.9385366879297 c-20.136982508711785,-3.661415636285426 -39.96737398116003,-15.866072954657541 -53.98035992148084,-33.22237118336188 c-26.542385285159746,-32.874999693056736 -39.941425178039246,-87.68319229399677 -38.25936316863662,-156.49815366009364 c1.048226270229142,-42.88283397362016 7.459187622777085,-74.7159562914245 20.50100338335432,-101.79617991619216 c16.810793795991724,-34.90614555033085 41.92844489802677,-55.60657273025805 75.83639136302833,-62.49973397348893 c7.4271006763800225,-1.5098515261533736 7.799393555266132,-1.5137767765746908 138.60997082731976,-1.4615366988198688 c72.13959578502593,0.028714919189488954 131.6920199153207,-0.15068746583841902 132.33871150822307,-0.3988475931457459 c1.0262554054547997,-0.3938158962969454 1.1758364248657325,-1.9895223964306337 1.1758364248657325,-12.545469162000021 c0,-6.651824202226383 -0.08061252543104241,-12.171621989322922 -0.17887550577672492,-12.266196814910323 c-0.09852641997127391,-0.0945748255873994 -40.12799312088325,-0.33622799414261195 -88.95460461502712,-0.5369689888434427 l-88.77562373340015,-0.3649692572946604 l-0.18440773791414913,-46.13952731310914 c-0.20179475320319754,-50.534938434218 -0.2423644555443104,-49.94894333105196 4.084209891397451,-59.229736932907564 c14.99846089173403,-32.173459970106194 59.180684474622396,-51.721233412219725 129.97945159727456,-57.50747403663965 c5.118895364871182,-0.4183421254395269 18.972210548120906,-0.9500686657336954 30.785080455313132,-1.1815794087036307 c78.38242996852131,-1.5361428007874203 135.88002501920127,12.796606157076532 166.10337316086532,41.40551724122735 c3.348212265419524,3.1693631036053587 7.7116418159815545,7.900080180167256 9.696527675001779,10.51268997904724 c4.5133266975236745,5.940668932941748 10.131334777040781,17.282535133538676 12.282477383771884,24.79633379070091 l1.6397272615700533,5.727467243950432 l0,95.21901450385846 c0,88.88128936722498 -0.08614475756846691,95.67170915647512 -1.2950165114833914,102.02036703757065 c-1.5598787110532282,8.192366444761182 -5.306675129992903,19.703071101399797 -8.429383075905983,25.896352291321367 c-10.811298794655366,21.44214144578046 -30.731048988104288,36.88984593103591 -57.13686717135733,44.30941223412401 c-17.146257815220125,4.817783872819937 -9.358771731030734,4.501261162671578 -122.86083872246235,4.993735198752592 c-112.71720131490643,0.489049320948324 -105.9065230184483,0.22655807800881206 -121.70850111219939,4.692412955000873 c-30.692692178618145,8.67435558374365 -53.24072682866975,32.580158064094576 -62.40075970615415,66.15833080578052 c-4.117824787622944,15.094853450738013 -4.026437581505205,13.684582103058279 -4.477367188630417,69.08746331480886 l-0.4195276037546897,51.54715250762877 l-34.364750775777466,0.11775751263946395 c-25.94192734654872,0.089042593449975 -35.649545829787904,-0.1156499956347308 -39.60651438202459,-0.8352880208634188 zm187.65244475067342,-428.29879974479985 c13.028801843073008,-6.120887980808989 20.874903243956535,-20.468600309406547 18.516170212259215,-33.85939454200503 c-2.1758005556864854,-12.352130820778315 -10.657344677459609,-22.210120642305213 -22.167785894472637,-25.765343765514643 c-18.39593636713919,-5.681918532685637 -37.59054264718456,6.042936195596422 -40.984646095382146,25.035141811299734 c-2.7603994288368954,15.446202879389581 6.172969994788455,30.48341574004814 21.281733057757698,35.82273103965185 c3.3764793372455078,1.1932497841173404 5.547722387409255,1.4351137043730247 11.335754401283205,1.262876877161211 c6.305980661749676,-0.187569013421249 7.738539001754462,-0.48517675845212604 12.018774318554653,-2.4960114205931236 z" id="path2997" inkscape:connector-curvature="0"/>
      <path style="fill:#3571a3" d="m245.3680395034877,550.9385366879297 c-20.136982508711785,-3.661415636285426 -39.96737398116003,-15.866072954657541 -53.98035992148084,-33.22237118336188 c-26.542385285159746,-32.874999693056736 -39.941425178039246,-87.68319229399677 -38.25936316863662,-156.49815366009364 c1.048226270229142,-42.88283397362016 7.459187622777085,-74.7159562914245 20.50100338335432,-101.79617991619216 c16.810793795991724,-34.90614555033085 41.92844489802677,-55.60657273025805 75.83639136302833,-62.49973397348893 c7.4271006763800225,-1.5098515261533736 7.799393555266132,-1.5137767765746908 138.60997082731976,-1.4615366988198688 c72.13959578502593,0.028714919189488954 131.6920199153207,-0.15068746583841902 132.33871150822307,-0.3988475931457459 c1.0262554054547997,-0.3938158962969454 1.1758364248657325,-1.9895223964306337 1.1758364248657325,-12.545469162000021 c0,-6.651824202226383 -0.08061252543104241,-12.171621989322922 -0.17887550577672492,-12.266196814910323 c-0.09852641997127391,-0.0945748255873994 -40.12799312088325,-0.33622799414261195 -88.95460461502712,-0.5369689888434427 l-88.77562373340015,-0.3649692572946604 l-0.18440773791414913,-46.13952731310914 c-0.20179475320319754,-50.534938434218 -0.2423644555443104,-49.94894333105196 4.084209891397451,-59.229736932907564 c14.99846089173403,-32.173459970106194 59.180684474622396,-51.721233412219725 129.97945159727456,-57.50747403663965 c5.118895364871182,-0.4183421254395269 18.972210548120906,-0.9500686657336954 30.785080455313132,-1.1815794087036307 c78.38242996852131,-1.5361428007874203 135.88002501920127,12.796606157076532 166.10337316086532,41.40551724122735 c3.348212265419524,3.1693631036053587 7.7116418159815545,7.900080180167256 9.696527675001779,10.51268997904724 c4.5133266975236745,5.940668932941748 10.131334777040781,17.282535133538676 12.282477383771884,24.79633379070091 l1.6397272615700533,5.727467243950432 l0,95.21901450385846 c0,88.88128936722498 -0.08614475756846691,95.67170915647512 -1.2950165114833914,102.02036703757065 c-1.5598787110532282,8.192366444761182 -5.306675129992903,19.703071101399797 -8.429383075905983,25.896352291321367 c-10.811298794655366,21.44214144578046 -30.731048988104288,36.88984593103591 -57.13686717135733,44.30941223412401 c-17.146257815220125,4.817783872819937 -9.358771731030734,4.501261162671578 -122.86083872246235,4.993735198752592 c-112.71720131490643,0.489049320948324 -105.9065230184483,0.22655807800881206 -121.70850111219939,4.692412955000873 c-30.692692178618145,8.67435558374365 -53.24072682866975,32.580158064094576 -62.40075970615415,66.15833080578052 c-4.117824787622944,15.094853450738013 -4.026437581505205,13.684582103058279 -4.477367188630417,69.08746331480886 l-0.4195276037546897,51.54715250762877 l-34.364750775777466,0.11775751263946395 c-25.94192734654872,0.089042593449975 -35.649545829787904,-0.1156499956347308 -39.60651438202459,-0.8352880208634188 zm187.65244475067342,-428.29879974479985 c13.028801843073008,-6.120887980808989 20.874903243956535,-20.468600309406547 18.516170212259215,-33.85939454200503 c-2.1758005556864854,-12.352130820778315 -10.657344677459609,-22.210120642305213 -22.167785894472637,-25.765343765514643 c-18.39593636713919,-5.681918532685637 -37.59054264718456,6.042936195596422 -40.984646095382146,25.035141811299734 c-2.7603994288368954,15.446202879389581 6.172969994788455,30.48341574004814 21.281733057757698,35.82273103965185 c3.3764793372455078,1.1932497841173404 5.547722387409255,1.4351137043730247 11.335754401283205,1.262876877161211 c6.305980661749676,-0.187569013421249 7.738539001754462,-0.48517675845212604 12.018774318554653,-2.4960114205931236 z" id="path2995" inkscape:connector-curvature="0"/>
    </g>
  </g></g></svg>